<svg width="115" height="79" viewBox="0 0 115 79" fill="none" xmlns="http://www.w3.org/2000/svg">
<path d="M23.8052 30.9999C23.8052 40.9411 31.864 48.9999 41.8052 48.9999L68.8052 48.9999C71.5666 48.9999 73.8052 46.7614 73.8052 43.9999L73.8052 9.99994C73.8052 4.47709 69.328 -6.12002e-05 63.8052 -6.07174e-05L28.8052 -5.76576e-05C26.0437 -5.74162e-05 23.8052 2.23852 23.8052 4.99994L23.8052 30.9999Z" fill="#FFF1DA"/>
<path d="M72.3891 44.9413C71.0307 45.2456 69.7077 45.8091 68.5022 46.5965C65.3614 48.5978 63.5341 51.4546 64.421 52.9767C65.308 54.4988 68.5731 54.1095 71.7138 52.1082C72.9356 51.3486 74.021 50.3779 74.9032 49.2559C75.3125 48.7138 75.386 48.0383 75.0908 47.5334L73.9386 45.556C73.6454 45.0495 73.0374 44.8086 72.3891 44.9413Z" fill="#D5D6DB"/>
<path d="M64.5021 17.9482C63.5171 18.169 62.5577 18.5778 61.6834 19.1488C59.4066 20.5996 58.0808 22.671 58.7234 23.7738C59.366 24.8766 61.7345 24.5941 64.0111 23.1434C64.897 22.5923 65.6839 21.8881 66.3237 21.0744C66.6202 20.6815 66.6733 20.1922 66.4593 19.8261L65.6251 18.3943C65.4128 18.0271 64.9722 17.8521 64.5021 17.9482Z" fill="#D5D6DB"/>
<path d="M51.688 19.0787C51.4687 19.0542 51.2349 19.1126 51.0322 19.2421L45.684 22.6503C45.2366 22.9346 45.0576 23.4819 45.2845 23.8731C45.3364 23.9627 45.4075 24.0393 45.4937 24.0983L58.6753 33.1832L76.5088 21.8185L51.688 19.0787Z" fill="#029BC5"/>
<path d="M108.065 17.794L59.5329 48.3461L30.8201 59.7716L16.177 62.6823L14.566 59.9451L95.4612 9.99845C97.872 8.50358 100.558 7.58602 103.246 7.33893C104.424 7.23704 105.587 7.2762 106.708 7.45499C107.702 7.6057 108.645 7.89641 109.508 8.31851C110.472 8.79674 112.307 8.85189 112.901 9.80471C112.903 9.80318 114.305 14.1776 108.065 17.794V17.794Z" fill="#E1E6E9"/>
<path d="M60.1762 44.3036L39.1809 77.7735C38.9187 78.2437 39.0744 78.7702 39.5283 78.9494C39.8068 79.0595 40.1477 79.016 40.4341 78.834L45.7781 75.4438C46.806 74.7915 47.7161 73.9629 48.4523 73.0093L89.1686 25.1404L60.1762 44.3036Z" fill="#029BC5"/>
<path d="M7.19662 43.1861C6.8464 43.0664 6.42961 43.1285 6.07778 43.3525L1.66029 46.1659C1.05837 46.549 0.818522 47.2854 1.12438 47.8111C1.18266 47.911 1.25836 47.999 1.3491 48.0714L13.7259 57.9838L26.7389 49.8557L7.19662 43.1861Z" fill="#029BC5"/>
<path d="M17.8743 59.7707L11.2128 69.1002C11.1152 69.2343 11.1381 69.4026 11.2641 69.4759C11.3549 69.5288 11.4789 69.5192 11.5797 69.4517L15.708 66.8357C15.74 66.8154 15.7691 66.7899 15.7931 66.7609L25.5266 54.9261L17.8743 59.7707Z" fill="#029BC5"/>
<path d="M105.911 7.85723C104.757 7.6718 103.559 7.6322 102.346 7.73881C101.166 9.38989 100.411 11.2446 100.157 13.118C100.139 13.4943 100.442 13.7652 100.835 13.723C100.957 13.7098 101.079 13.6669 101.188 13.5981L108.796 8.75382C107.906 8.31521 106.935 8.01337 105.911 7.85723Z" fill="#029BC5"/>
<path d="M89.3322 16.7653L94.2992 13.6284L98.9258 21.4974L93.9588 24.6343L89.3322 16.7653Z" fill="#D5D6DB"/>
<path d="M86.2066 19.8775C85.6081 20.2567 85.3688 20.9855 85.6727 21.5052L86.165 22.3472C86.4889 22.8536 87.2282 22.9427 87.8164 22.546C88.3763 22.1682 88.6017 21.4815 88.3319 20.9745L87.8396 20.1325C87.536 19.6132 86.8052 19.499 86.2066 19.8775V19.8775Z" fill="#3A556A"/>
<path d="M81.7423 22.65C81.1437 23.0291 80.9045 23.7579 81.2084 24.2777L81.7007 25.1196C82.0245 25.6261 82.7638 25.7152 83.3521 25.3185C83.9119 24.9407 84.1373 24.254 83.8676 23.747L83.3752 22.905C83.0714 22.3859 82.3406 22.2716 81.7423 22.65V22.65Z" fill="#3A556A"/>
<path d="M77.2764 25.4233C76.6785 25.803 76.4401 26.5309 76.7438 27.0501L77.2361 27.8921C77.5599 28.3986 78.2992 28.4876 78.8875 28.0909C79.4473 27.7131 79.6727 27.0265 79.403 26.5195L78.9106 25.6775C78.6068 25.1578 77.8752 25.044 77.2764 25.4233V25.4233Z" fill="#3A556A"/>
<path d="M72.8121 28.1957C72.2142 28.5754 71.9758 29.3033 72.2794 29.8226L72.7717 30.6646C73.0956 31.171 73.8348 31.2601 74.4231 30.8634C74.9829 30.4856 75.2084 29.7989 74.9386 29.2919L74.4463 28.4499C74.1422 27.9304 73.4106 27.8166 72.8121 28.1957V28.1957Z" fill="#3A556A"/>
<path d="M68.3481 30.9684C67.7499 31.3482 67.5113 32.0764 67.8151 32.5959L68.3077 33.4383C68.6114 33.9575 69.3427 34.0712 69.941 33.6923C70.5394 33.3133 70.7783 32.5851 70.4746 32.0658L69.982 31.2235C69.6791 30.7037 68.9481 30.5892 68.3494 30.9676C68.3489 30.9679 68.3486 30.9681 68.3481 30.9684Z" fill="#3A556A"/>
<path d="M63.8837 33.7408C63.2855 34.1207 63.047 34.8489 63.3508 35.3684L63.8434 36.2107C64.147 36.73 64.8783 36.8437 65.4767 36.4647C66.075 36.0857 66.3139 35.3575 66.0103 34.8383L65.5177 33.9959C65.2148 33.4762 64.4838 33.3617 63.885 33.74C63.8845 33.7404 63.884 33.7407 63.8837 33.7408Z" fill="#3A556A"/>
<path d="M59.4191 36.5134C58.8209 36.8932 58.5824 37.6214 58.8862 38.1409L59.3788 38.9832C59.6832 39.502 60.4148 39.6145 61.0125 39.2351C61.6092 38.8562 61.8476 38.1296 61.5454 37.6109L61.0528 36.7686C60.7492 36.249 60.018 36.1347 59.4191 36.5134Z" fill="#3A556A"/>
<path d="M54.9545 39.2859C54.3563 39.6657 54.1178 40.3939 54.4216 40.9134L54.9142 41.7558C55.2186 42.2746 55.9502 42.3871 56.5479 42.0076C57.1446 41.6288 57.383 40.9021 57.0808 40.3835L56.5882 39.5411C56.2846 39.0215 55.5534 38.9072 54.9545 39.2859Z" fill="#3A556A"/>
<path d="M50.4903 42.0583C49.8921 42.4381 49.6535 43.1663 49.9573 43.6858L50.4499 44.5281C50.7543 45.0469 51.486 45.1595 52.0837 44.78C52.6804 44.4011 52.9188 43.6745 52.6165 43.1559L52.1239 42.3136C51.8201 41.7941 51.0889 41.6798 50.4903 42.0583Z" fill="#3A556A"/>
<path d="M46.0245 44.8315C45.4261 45.2105 45.1872 45.9387 45.4909 46.458L45.4915 46.4591L45.9841 47.3014C46.2885 47.8202 47.0201 47.9328 47.6179 47.5533C48.2146 47.1744 48.453 46.4478 48.1507 45.9291L47.6581 45.0868C47.3546 44.5671 46.6233 44.4528 46.0245 44.8315Z" fill="#3A556A"/>
<path d="M41.5612 47.6032C40.9629 47.9822 40.724 48.7104 41.0276 49.2296L41.0283 49.2307L41.5209 50.073C41.8253 50.5918 42.5569 50.7044 43.1546 50.3249C43.7514 49.9461 43.9898 49.2194 43.6875 48.7008L43.1949 47.8585C42.8911 47.339 42.1599 47.2247 41.5612 47.6032Z" fill="#3A556A"/>
</svg>
