<svg width="149" height="34" viewBox="0 0 149 34" fill="none" xmlns="http://www.w3.org/2000/svg">
<path d="M148.086 30.096C148.086 28.292 146.678 26.884 144.918 26.884C143.114 26.884 141.706 28.292 141.706 30.096C141.706 31.9 143.114 33.308 144.918 33.308C146.678 33.308 148.086 31.9 148.086 30.096Z" fill="#181E4B"/>
<path d="M137.935 20.8561C137.935 13.2441 132.479 8.36011 125.571 8.36011C118.663 8.36011 113.207 13.2441 113.207 20.8561C113.207 28.4681 118.443 33.3961 125.351 33.3961C132.303 33.3961 137.935 28.4681 137.935 20.8561ZM118.311 20.8561C118.311 15.3561 121.699 12.7161 125.483 12.7161C129.223 12.7161 132.787 15.3561 132.787 20.8561C132.787 26.3561 129.091 29.0401 125.351 29.0401C121.567 29.0401 118.311 26.3561 118.311 20.8561Z" fill="#181E4B"/>
<path d="M109.877 20.8561C109.877 13.2441 104.421 8.36011 97.5126 8.36011C90.6046 8.36011 85.1486 13.2441 85.1486 20.8561C85.1486 28.4681 90.3846 33.3961 97.2926 33.3961C104.245 33.3961 109.877 28.4681 109.877 20.8561ZM90.2526 20.8561C90.2526 15.3561 93.6406 12.7161 97.4246 12.7161C101.165 12.7161 104.729 15.3561 104.729 20.8561C104.729 26.3561 101.033 29.0401 97.2926 29.0401C93.5086 29.0401 90.2526 26.3561 90.2526 20.8561Z" fill="#181E4B"/>
<path d="M55.2843 20.7679C55.2843 28.2479 60.3443 33.3959 66.7243 33.3959C70.6843 33.3959 73.5883 31.5479 75.1283 29.3479V32.9999H80.1883V0.439941H75.1283V12.1439C73.2803 9.85594 69.9363 8.35994 66.7683 8.35994C60.3443 8.35994 55.2843 13.2879 55.2843 20.7679ZM75.1283 20.8559C75.1283 26.0919 71.5643 29.0399 67.7803 29.0399C64.0403 29.0399 60.4323 26.0039 60.4323 20.7679C60.4323 15.5319 64.0403 12.7159 67.7803 12.7159C71.5643 12.7159 75.1283 15.6639 75.1283 20.8559Z" fill="#181E4B"/>
<path d="M25.464 20.7681C25.464 28.2481 30.524 33.3961 36.816 33.3961C40.864 33.3961 43.768 31.4601 45.308 29.3921V33.0001H50.368V8.75611H45.308V12.2761C43.812 10.2961 40.996 8.36011 36.904 8.36011C30.524 8.36011 25.464 13.2881 25.464 20.7681ZM45.308 20.8561C45.308 26.0921 41.744 29.0401 37.96 29.0401C34.22 29.0401 30.612 26.0041 30.612 20.7681C30.612 15.5321 34.22 12.7161 37.96 12.7161C41.744 12.7161 45.308 15.6641 45.308 20.8561Z" fill="#181E4B"/>
<path d="M13.916 24.4639C13.916 27.0159 12.64 28.8639 9.95604 28.8639C7.27204 28.8639 6.04004 27.0159 5.99604 24.4639H0.936035C0.936035 30.0079 4.67604 33.3079 9.95604 33.3079C15.236 33.3079 18.976 30.0079 18.976 24.4639V2.41992H13.916V24.4639Z" fill="#181E4B"/>
</svg>
