<svg width="98" height="253" viewBox="0 0 98 253" fill="none" xmlns="http://www.w3.org/2000/svg">
<path d="M8.95816 6.56683C15.985 2.98453 33.7527 -2.52325 48.6094 4.104C63.4661 10.7313 43.423 23.135 31.5443 28.5084C25.6886 30.0011 13.4754 32.5385 11.4677 30.7474C8.95816 28.5084 7.45241 23.8067 28.0309 19.7766C41.248 17.3884 69.7902 14.8509 78.2224 23.8067C82.0704 27.6875 82.7396 36.7029 54.6324 41.7182L19.4984 48.2111M19.4984 48.2111C6.11398 48.4367 -13.1261 45.7523 16.9888 33.2102C26.5252 31.2698 49.6133 27.3442 65.6746 27.1651C74.8763 27.986 92.5772 32.046 89.7665 41.7182C90.1011 43.6586 83.8439 48.4798 56.1382 52.2412C49.7806 52.8382 35.5597 54.0771 29.5367 54.2562L7.95439 55.5996L19.4984 48.2111ZM19.4984 48.2111C28.2808 47.1662 49.0085 45.39 61.6592 46.6438C77.4727 48.2111 83.7435 46.8677 96.2913 55.5996C98.4663 60.0775 96.8936 69.2571 73.2033 70.1527C49.5129 71.0483 34.2212 69.3317 29.5367 68.3615V60.0775M29.5367 60.0775C46.7691 60.7491 83.7435 60.2566 93.7818 52.9129C98.6336 47.6887 99.0017 37.0164 61.6592 36.1208C52.6248 36.2701 33.3513 36.7477 28.5329 37.4642L29.5367 53.3606C47.1037 54.0323 84.0446 57.2116 91.2722 64.5553C95.1202 68.8093 96.3917 77.7651 70.6937 79.5562C61.1573 79.7055 39.575 79.1532 29.5367 75.75M29.5367 60.0775V75.75M29.5367 60.0775C40.4115 61.1969 64.3696 64.2867 73.2033 67.6898C83.9108 71.4214 99.604 80.6757 76.7167 87.8403C69.5225 88.9598 50.4163 89.8553 31.5443 84.4819M29.5367 75.75L31.5443 84.4819M29.5367 75.75C41.5827 79.3323 66.1765 88.0194 68.1841 94.1093C69.0207 97.8409 66.7788 105.617 51.119 106.871C47.1037 107.17 37.1658 107.14 29.5367 104.632L31.5443 84.4819" stroke="#84829A"/>
</svg>
