<svg width="153" height="166" viewBox="0 0 153 166" fill="none" xmlns="http://www.w3.org/2000/svg">
<path d="M7.19727 12.6104H11.5586V14.4902H7.19727V19.4316H5.19922V14.4902H0.837891V12.6104H5.19922V8.04492H7.19727V12.6104Z"  fill="#E5E5E5">
    <animate
        id="an1"
        attributeName="fill"
        values="#FF7152"
        dur="0.1s"
        begin="indefinite"
        repeatCount="2"
         >
    </animate>
    <animate
        id="pause"
        attributeName="fill"
        values="#E5E5E5"
        dur="2s"
        begin="an1.end"
        repeatCount="1"
         >
    </animate>
</path>
<path d="M42.1973 12.6104H46.5586V14.4902H42.1973V19.4316H40.1992V14.4902H35.8379V12.6104H40.1992V8.04492H42.1973V12.6104Z" fill="#E5E5E5">
   <animate
        id="an2"
        attributeName="fill"
        values="#FF7152"
        dur="0.1s"
        begin="an1.end"
        repeatCount="2"
         >
    </animate>
    <animate
        id="pausean2"
        attributeName="fill"
        values="#E5E5E5"
        dur="2.5s"
        begin="an2.end"
        repeatCount="1"
         >
    </animate>
        <animate
        id="stop"
        attributeName="fill"
        values="#FF7152"
        begin="pausean2.end"
        repeatCount="1"
        fill="freeze"
         >
    </animate>
</path>
<path d="M77.1973 12.6104H81.5586V14.4902H77.1973V19.4316H75.1992V14.4902H70.8379V12.6104H75.1992V8.04492H77.1973V12.6104Z" fill="#E5E5E5">
   <animate
        id="an3"
        attributeName="fill"
        values="#FF7152"
        dur="0.1s"
        begin="an2.end"
        repeatCount="2"
         >
    </animate>
    <animate
        id="pause"
        attributeName="fill"
        values="#E5E5E5"
        dur="2s"
        begin="an3.end"
        repeatCount="1"
         >
    </animate>
</path>
<path d="M112.197 12.6104H116.559V14.4902H112.197V19.4316H110.199V14.4902H105.838V12.6104H110.199V8.04492H112.197V12.6104Z" fill="#E5E5E5">
  <animate
        id="an4"
        attributeName="fill"
        values="#FF7152"
        dur="0.1s"
        begin="an3.end"
        repeatCount="2"
         >
    </animate>
    <animate
        id="pause"
        attributeName="fill"
        values="#E5E5E5"
        dur="2s"
        begin="an4.end"
        repeatCount="1"
         >
    </animate>
</path>
<path d="M147.197 12.6104H151.559V14.4902H147.197V19.4316H145.199V14.4902H140.838V12.6104H145.199V8.04492H147.197V12.6104Z" fill="#E5E5E5">
  <animate
        id="an5"
        attributeName="fill"
        values="#FF7152"
        dur="0.1s"
        begin="an4.end"
        repeatCount="2"
         >
    </animate>
    <animate
        id="pause"
        attributeName="fill"
        values="#E5E5E5"
        dur="2s"
        begin="an5.end"
        repeatCount="1"
         >
    </animate>
</path>

<path d="M7.19727 47.6104H11.5586V49.4902H7.19727V54.4316H5.19922V49.4902H0.837891V47.6104H5.19922V43.0449H7.19727V47.6104Z" fill="#E5E5E5">
   <animate
        id="an6"
        attributeName="fill"
        values="#FF7152"
        dur="0.1s"
        begin="an5.end"
        repeatCount="2"
         >
    </animate>
    <animate
        id="pause"
        attributeName="fill"
        values="#E5E5E5"
        dur="2s"
        begin="an6.end"
        repeatCount="1"
         >
    </animate>
</path>
<path d="M42.1973 47.6104H46.5586V49.4902H42.1973V54.4316H40.1992V49.4902H35.8379V47.6104H40.1992V43.0449H42.1973V47.6104Z" fill="#E5E5E5">
   <animate
        id="an7"
        attributeName="fill"
        values="#FF7152"
        dur="0.1s"
        begin="an6.end"
        repeatCount="2"
         >
    </animate>
    <animate
        id="pause"
        attributeName="fill"
        values="#E5E5E5"
        dur="2s"
        begin="an7.end"
        repeatCount="1"
         >
    </animate>
</path>
<path d="M77.1973 47.6104H81.5586V49.4902H77.1973V54.4316H75.1992V49.4902H70.8379V47.6104H75.1992V43.0449H77.1973V47.6104Z" fill="#E5E5E5">
   <animate
        id="an8"
        attributeName="fill"
        values="#FF7152"
        dur="0.1s"
        begin="an7.end"
        repeatCount="2"
         >
    </animate>
    <animate
        id="pause"
        attributeName="fill"
        values="#E5E5E5"
        dur="2s"
        begin="an8.end"
        repeatCount="1"
         >
    </animate>
</path>
<path d="M112.197 47.6104H116.559V49.4902H112.197V54.4316H110.199V49.4902H105.838V47.6104H110.199V43.0449H112.197V47.6104Z" fill="#E5E5E5">
   <animate
        id="an9"
        attributeName="fill"
        values="#FF7152"
        dur="0.1s"
        begin="an8.end"
        repeatCount="2"
         >
    </animate>
    <animate
        id="pause"
        attributeName="fill"
        values="#E5E5E5"
        dur="2s"
        begin="an9.end"
        repeatCount="1"
         >
    </animate>
</path>
<path d="M147.197 47.6104H151.559V49.4902H147.197V54.4316H145.199V49.4902H140.838V47.6104H145.199V43.0449H147.197V47.6104Z" fill="#E5E5E5">
   <animate
        id="an10"
        attributeName="fill"
        values="#FF7152"
        dur="0.1s"
        begin="an9.end"
        repeatCount="2"
         >
    </animate>
    <animate
        id="pause"
        attributeName="fill"
        values="#E5E5E5"
        dur="2s"
        begin="an10.end"
        repeatCount="1"
         >
    </animate>
</path>

<path d="M7.19727 82.6104H11.5586V84.4902H7.19727V89.4316H5.19922V84.4902H0.837891V82.6104H5.19922V78.0449H7.19727V82.6104Z" fill="#E5E5E5">
   <animate
        id="an11"
        attributeName="fill"
        values="#FF7152"
        dur="0.1s"
        begin="an10.end"
        repeatCount="2"
         >
    </animate>
    <animate
        id="pause"
        attributeName="fill"
        values="#E5E5E5"
        dur="2s"
        begin="an11.end"
        repeatCount="1"
         >
    </animate>
</path>
<path d="M42.1973 82.6104H46.5586V84.4902H42.1973V89.4316H40.1992V84.4902H35.8379V82.6104H40.1992V78.0449H42.1973V82.6104Z" fill="#E5E5E5">
   <animate
        id="an12"
        attributeName="fill"
        values="#FF7152"
        dur="0.1s"
        begin="an11.end"
        repeatCount="2"
         >
    </animate>
    <animate
        id="pause"
        attributeName="fill"
        values="#E5E5E5"
        dur="2s"
        begin="an12.end"
        repeatCount="1"
         >
    </animate>
</path>
<path d="M77.1973 82.6104H81.5586V84.4902H77.1973V89.4316H75.1992V84.4902H70.8379V82.6104H75.1992V78.0449H77.1973V82.6104Z" fill="#6246E5">
   <animate
        id="an13"
        attributeName="fill"
        values="#FF7152"
        dur="0.1s"
        begin="an12.end"
        repeatCount="2"
         >
    </animate>
    <animate
        id="pause"
        attributeName="fill"
        values="#E5E5E5"
        dur="2s"
        begin="an13.end"
        repeatCount="1"
         >
    </animate>
</path>
<path d="M112.197 82.6104H116.559V84.4902H112.197V89.4316H110.199V84.4902H105.838V82.6104H110.199V78.0449H112.197V82.6104Z" fill="#E5E5E5">
   <animate
        id="an14"
        attributeName="fill"
        values="#FF7152"
        dur="0.1s"
        begin="an13.end"
        repeatCount="2"
         >
    </animate>
    <animate
        id="pause"
        attributeName="fill"
        values="#E5E5E5"
        dur="2s"
        begin="an14.end"
        repeatCount="1"
         >
    </animate>
</path>
<path d="M147.197 82.6104H151.559V84.4902H147.197V89.4316H145.199V84.4902H140.838V82.6104H145.199V78.0449H147.197V82.6104Z" fill="#E5E5E5">
   <animate
        id="an15"
        attributeName="fill"
        values="#FF7152"
        dur="0.1s"
        begin="an14.end"
        repeatCount="2"
         >
    </animate>
    <animate
        id="pause"
        attributeName="fill"
        values="#E5E5E5"
        dur="2s"
        begin="an15.end"
        repeatCount="1"
         >
    </animate>
</path>

<path d="M42.1973 117.61H46.5586V119.49H42.1973V124.432H40.1992V119.49H35.8379V117.61H40.1992V113.045H42.1973V117.61Z" fill="#E5E5E5">
   <animate
        id="an16"
        attributeName="fill"
        values="#FF7152"
        dur="0.1s"
        begin="an15.end"
        repeatCount="2"
         >
    </animate>
    <animate
        id="pause"
        attributeName="fill"
        values="#E5E5E5"
        dur="2s"
        begin="an16.end"
        repeatCount="1"
         >
    </animate>
</path>
<path d="M77.1973 117.61H81.5586V119.49H77.1973V124.432H75.1992V119.49H70.8379V117.61H75.1992V113.045H77.1973V117.61Z" fill="#E5E5E5">
   <animate
        id="an17"
        attributeName="fill"
        values="#FF7152"
        dur="0.1s"
        begin="an6.end"
        repeatCount="2"
         >
    </animate>
    <animate
        id="pause"
        attributeName="fill"
        values="#E5E5E5"
        dur="2s"
        begin="an17.end"
        repeatCount="1"
         >
    </animate>
</path>
<path d="M112.197 117.61H116.559V119.49H112.197V124.432H110.199V119.49H105.838V117.61H110.199V113.045H112.197V117.61Z" fill="#E5E5E5">
   <animate
        id="an18"
        attributeName="fill"
        values="#FF7152"
        dur="0.1s"
        begin="an17.end"
        repeatCount="2"
         >
    </animate>
    <animate
        id="pause"
        attributeName="fill"
        values="#E5E5E5"
        dur="2s"
        begin="an18.end"
        repeatCount="1"
         >
    </animate>
</path>
<path d="M147.197 117.61H151.559V119.49H147.197V124.432H145.199V119.49H140.838V117.61H145.199V113.045H147.197V117.61Z" fill="#E5E5E5">
   <animate
        id="an19"
        attributeName="fill"
        values="#FF7152"
        dur="0.1s"
        begin="an18.end"
        repeatCount="2"
         >
    </animate>
    <animate
        id="pause"
        attributeName="fill"
        values="#E5E5E5"
        dur="2s"
        begin="an19.end"
        repeatCount="1"
         >
    </animate>
</path>

<path d="M77.1973 152.61H81.5586V154.49H77.1973V159.432H75.1992V154.49H70.8379V152.61H75.1992V148.045H77.1973V152.61Z" fill="#E5E5E5">
   <animate
        id="an20"
        attributeName="fill"
        values="#FF7152"
        dur="0.1s"
        begin="an19.end"
        repeatCount="2"
         >
    </animate>
    <animate
        id="pause"
        attributeName="fill"
        values="#E5E5E5"
        dur="2s"
        begin="an20.end"
        repeatCount="1"
         >
    </animate>
</path>
<path d="M112.197 152.61H116.559V154.49H112.197V159.432H110.199V154.49H105.838V152.61H110.199V148.045H112.197V152.61Z" fill="#E5E5E5">
   <animate
        id="an21"
        attributeName="fill"
        values="#FF7152"
        dur="0.1s"
        begin="an20.end"
        repeatCount="2"
         >
    </animate>
    <animate
        id="pause"
        attributeName="fill"
        values="#E5E5E5"
        dur="2s"
        begin="an21.end"
        repeatCount="1"
         >
    </animate>
</path>
<path d="M147.197 152.61H151.559V154.49H147.197V159.432H145.199V154.49H140.838V152.61H145.199V148.045H147.197V152.61Z" fill="#E5E5E5">
   <animate
        id="an22"
        attributeName="fill"
        values="#FF7152"
        dur="0.1s"
        begin="an21.end"
        repeatCount="2"
         >
    </animate>
    <animate
        id="pause"
        attributeName="fill"
        values="#E5E5E5"
        dur="2s"
        begin="an22.end"
        repeatCount="1"
         >
    </animate>
</path>
</svg>
