<svg width="398" height="391" viewBox="0 0 398 391" fill="none" xmlns="http://www.w3.org/2000/svg">
<path d="M256.045 243.202C256.045 312.635 199.838 368.92 130.506 368.92C61.1728 368.92 4.96563 312.635 4.96563 243.202C4.96566 173.769 61.1728 117.484 130.506 117.484C199.838 117.485 256.045 173.77 256.045 243.202Z" stroke="#6246E5"/>
<path d="M284.238 233.238C284.238 310.925 221.349 373.902 143.773 373.902C66.197 373.902 3.30739 310.925 3.30718 233.238C3.30719 155.55 66.1969 92.5727 143.773 92.5727C221.349 92.5729 284.238 155.55 284.238 233.238Z" stroke="#6246E5"/>
<path d="M308.285 224.934C308.284 309.959 239.456 378.885 154.552 378.885C69.649 378.885 0.820114 309.959 0.819879 224.934C0.819882 139.909 69.6489 70.9831 154.552 70.9831C239.456 70.9832 308.285 139.909 308.285 224.934Z" stroke="#6246E5"/>
<path d="M335.649 216.63C335.649 308.076 261.622 382.207 170.307 382.207C78.9926 382.206 4.96642 308.076 4.96636 216.63C4.96637 125.185 78.9926 51.0544 170.307 51.0542C261.622 51.0542 335.649 125.185 335.649 216.63Z" stroke="#6246E5"/>
<path d="M362.183 208.741C362.183 306.378 283.145 385.528 185.647 385.528C88.1502 385.527 9.11211 306.378 9.11211 208.741C9.11215 111.105 88.1502 31.9556 185.647 31.9553C283.145 31.9553 362.183 111.104 362.183 208.741Z" stroke="#6246E5"/>
<path d="M397.01 195.456C397.01 302.724 310.175 389.68 203.061 389.68C95.9467 389.68 9.11185 302.723 9.11162 195.456C9.11163 88.1884 95.9466 1.23156 203.061 1.23144C310.175 1.23144 397.01 88.1883 397.01 195.456Z" stroke="#6246E5"/>
</svg>
