<svg width="305" height="12" viewBox="0 0 305 12" fill="none" xmlns="http://www.w3.org/2000/svg">
<path d="M169.086 0.0136719C169.411 0.0394912 169.743 0.0795847 170.054 0.131836C170.205 0.165618 170.388 0.191332 170.564 0.203125C170.74 0.214902 170.896 0.211988 170.999 0.195312C171.469 0.146018 172.221 0.191562 172.609 0.108398C172.747 0.0892551 172.945 0.0863426 173.166 0.100586C173.387 0.114858 173.618 0.145642 173.817 0.186523C173.6 0.199277 173.406 0.219144 173.24 0.246094C172.646 0.333749 172.864 0.480429 173.619 0.693359C174.778 0.681653 175.962 0.68465 177.036 0.644531C177.635 0.608507 178.369 0.619473 179.155 0.676758C179.941 0.734031 180.748 0.835373 181.486 0.96875C181.753 1.02006 182.059 1.05565 182.34 1.06836C182.621 1.08104 182.858 1.06971 183.005 1.03711C183.096 0.999395 183.124 0.952035 183.087 0.898438L182.33 0.804688C182.331 0.802698 182.36 0.754061 182.366 0.743164L183.455 0.735352C184.031 0.735059 184.633 0.74932 185.178 0.745117C185.978 0.717188 186.891 0.732896 187.861 0.791016C188.756 0.850615 189.636 0.895675 190.492 0.925781C191.321 0.956768 191.922 0.857574 192.711 0.841797C193.307 0.829912 193.964 0.843076 194.654 0.879883C195.847 0.945146 196.942 0.944913 197.839 0.879883C198.885 1.23041 199.394 1.28808 200.365 1.19336L200.821 1.16602L200.946 1.24121L201.295 1.22461C201.947 1.20988 202.6 1.1947 203.281 1.18945C204.228 1.22199 205.25 1.30941 206.248 1.44336C206.437 1.46681 206.695 1.54698 206.861 1.60938C207.028 1.67178 207.391 1.85987 207.657 1.98242C207.367 2.07189 207.045 2.15789 206.814 2.26074C206.792 2.27826 206.794 2.29874 206.821 2.32129C206.849 2.34392 206.901 2.36777 206.973 2.39062C207.045 2.41348 207.135 2.43494 207.236 2.45312C207.338 2.47132 207.448 2.48647 207.557 2.49609C207.769 2.51681 207.978 2.52979 208.176 2.53613C209.151 2.54707 210.085 2.53981 210.969 2.5127C211.291 2.47443 211.734 2.47038 212.225 2.50195C212.715 2.53354 213.227 2.59847 213.679 2.68652C214.835 2.63366 216.178 2.64939 217.616 2.73242C219.137 2.68193 220.974 2.7835 222.395 2.67285C222.363 2.72849 222.509 2.82469 222.714 2.87988C223.037 2.96365 223.403 3.04116 223.797 3.10938L226.802 3.24316C226.914 3.31169 227.055 3.38088 227.222 3.4502C227.336 3.50487 227.534 3.55861 227.775 3.59961C228.017 3.64065 228.282 3.66576 228.515 3.66992C229.112 3.6902 229.614 3.64475 230.326 3.75684C229.228 3.86284 227.748 3.84945 226.148 3.71777C224.645 3.6176 223.199 3.56743 221.864 3.56934C221.424 3.56858 220.845 3.57418 220.707 3.63477C220.402 3.80594 219.605 3.77866 218.675 3.74707C217.944 3.7125 217.277 3.71677 216.728 3.75879C216.178 3.80082 215.763 3.87985 215.516 3.98926C215.453 4.09487 215.603 4.18462 216.244 4.24609L218.911 4.49316C219.304 4.46146 219.677 4.42406 220.028 4.38086C220.62 4.3235 221.351 4.30786 222.163 4.33496C222.976 4.36207 223.849 4.43113 224.714 4.53711C225.156 4.59183 225.598 4.64612 225.918 4.62012C226.199 4.59026 226.458 4.55503 226.692 4.51367C226.74 4.48596 226.759 4.4538 226.749 4.41895C226.919 4.43517 227.089 4.45622 227.254 4.48145C228.57 4.77588 229.59 4.77071 230.517 4.69434C230.767 4.67164 230.958 4.63569 231.212 4.60742C231.466 4.57917 231.555 4.5421 231.786 4.55273C233.627 4.6493 234.157 4.32689 235.708 4.33984C235.784 4.32725 235.831 4.30849 235.845 4.28516C235.858 4.26187 235.838 4.23431 235.787 4.20605C235.678 4.18052 235.551 4.15896 235.419 4.14258C235.287 4.12618 235.152 4.11549 235.029 4.1123C234.315 4.07094 233.685 4.08385 233.246 4.14844C232.935 4.17484 232.606 4.19636 232.26 4.21191L230.707 3.74414C232.212 3.78695 233.635 3.78751 234.943 3.74414C235.229 3.71982 235.712 3.76156 236.114 3.76953L239.07 3.8125C239.678 3.81612 240.196 3.74338 241.044 3.91406C241.058 3.91475 241.605 3.94097 241.753 3.91797C241.903 3.89457 242.564 3.74966 242.959 3.65527C243.417 3.6822 244.052 3.75482 244.338 3.73047C244.836 3.67067 245.268 3.59408 245.625 3.50195L247.411 3.63379C247.409 3.75061 247.344 3.8606 247.217 3.96191C247.078 4.05968 247.082 4.17733 247.23 4.30469C247.379 4.43201 247.667 4.56518 248.07 4.69434L249.833 5.37891C250.121 5.42472 250.428 5.45511 250.712 5.4668C250.996 5.47847 251.243 5.47097 251.421 5.44434C252.179 5.36512 253.03 5.30284 253.788 5.22363C254.767 5.34484 254.516 5.54116 255.228 5.71289L257.531 5.99805C257.883 6.26255 258.241 6.51594 257.172 6.60449C256.96 6.62008 257.103 6.72105 256.909 6.7627C257.74 6.96114 258.654 7.02036 259.496 7.14258C259.828 7.2305 260.106 7.32425 260.316 7.41797C260.547 7.55902 261.014 7.70333 261.617 7.81934C262.22 7.9354 262.912 8.01383 263.541 8.03809C264.596 8.11239 265.677 8.22428 266.734 8.36816C267.095 8.41816 267.466 8.4542 267.822 8.47461C268.178 8.49503 268.512 8.4992 268.799 8.48633C269.822 8.46367 270.687 8.38586 271.34 8.25781C271.985 8.14912 272.855 8.09681 273.87 8.10547C275.606 8.32052 275.957 8.64427 277.008 8.92969L275.192 8.96191C275.127 9.07312 275.246 9.2135 274.503 9.21094C273.759 9.20838 274.137 9.31436 274.378 9.42188C274.463 9.47594 274.629 9.53136 274.848 9.5791C275.066 9.62685 275.324 9.66467 275.578 9.68457L277.123 9.82129C277.671 9.87365 278.201 9.89681 278.655 9.88672C279.109 9.87662 279.47 9.83423 279.698 9.76465C279.96 9.69856 280.321 9.6534 280.759 9.63281C281.317 9.57889 281.777 9.49895 282.12 9.39551L284.301 9.5459C284.394 9.44201 284.694 9.36933 285.149 9.33984C285.605 9.31034 286.189 9.32654 286.803 9.38477L288.273 9.47656C289.908 9.57746 290.266 9.54401 290.745 9.25098L288.784 8.72754C289.069 8.58965 289.345 8.46885 289.62 8.34766C289.132 8.17521 288.48 8.01221 287.731 7.875C287.033 7.72758 286.314 7.58485 285.579 7.44727C284.781 7.30666 283.939 7.18389 282.948 7.02539C282.775 6.97411 282.524 6.88341 282.203 6.7959C281.882 6.71087 281.547 6.62725 281.199 6.5459C281.265 6.43479 281.324 6.33506 281.197 6.20605C281.807 6.24726 282.438 6.3186 283.031 6.41504C283.625 6.51148 284.163 6.62933 284.598 6.75781C284.671 6.7806 284.76 6.80271 284.86 6.82129C284.96 6.83986 285.069 6.8552 285.178 6.86621C286.249 6.94516 286.761 7.11027 287.285 7.3125C287.638 7.41589 288.093 7.50769 288.587 7.5752C289.534 7.6925 290.462 7.84258 291.367 7.97266C291.644 8.01599 291.933 8.05159 292.22 8.07812C293.166 8.16251 294.119 8.28117 295.029 8.42676C295.326 8.46375 295.611 8.51253 295.86 8.56934C296.109 8.62616 296.316 8.68893 296.462 8.75293C296.236 8.82307 296.115 8.91208 296.104 9.01367C296.066 9.08047 296.73 9.21684 297.044 9.31543C297.358 9.41402 296.743 9.3671 296.533 9.37695C295.675 9.39604 295.515 9.43633 296.029 9.65527C296.201 9.7241 296.315 9.7928 296.364 9.85742C296.413 9.92204 296.396 9.98152 296.314 10.0312C296.192 10.2369 295.821 10.4062 295.566 10.6074C295.962 10.7401 296.624 10.8817 296.696 11.0459C296.731 11.0822 296.804 11.1204 296.91 11.1582C297.017 11.1962 297.154 11.2325 297.312 11.2646C297.727 11.3341 298.105 11.4175 298.416 11.5078C298.727 11.5981 298.963 11.6937 299.104 11.7861C299.151 11.8243 299.263 11.8648 299.418 11.8994C299.573 11.9342 299.761 11.9599 299.942 11.9727C300.159 11.9882 300.353 11.9871 300.484 11.9678C300.615 11.9485 300.674 11.9127 300.647 11.8691C300.653 11.7874 300.624 11.7022 300.562 11.6143C300.598 11.5531 300.634 11.4918 300.491 11.3906C301.138 11.4276 301.817 11.5013 302.455 11.6045C303.093 11.7077 303.665 11.8361 304.108 11.9756C304.135 11.9833 304.16 11.9922 304.187 12H27.7899C27.5142 11.9172 27.2444 11.834 26.9745 11.751C26.4873 11.6011 25.9212 11.4124 25.3524 11.2285C24.8511 11.1998 24.3628 11.1808 23.8944 11.1729C23.53 11.1796 23.1047 11.1597 22.6688 11.1152C22.2329 11.0708 21.8038 11.0036 21.4335 10.9219C21.6507 10.8413 21.8965 10.7701 22.1552 10.6768C21.8002 10.5535 21.5425 10.4281 21.3983 10.3076C21.2542 10.1871 21.2271 10.0737 21.3173 9.97559C21.3688 9.88653 20.9837 9.73702 20.8505 9.61914C20.6788 9.51738 20.6463 9.4224 20.7577 9.34668C20.8692 9.271 21.1191 9.21852 21.4745 9.19531C21.9155 9.15246 22.2749 9.08747 22.537 9.00391C22.6232 8.98227 22.6672 8.95282 22.6649 8.91797C22.6625 8.88296 22.6134 8.8435 22.5224 8.80371C22.4313 8.76394 22.3008 8.72529 22.1435 8.69043C21.9863 8.65562 21.8071 8.62592 21.622 8.60449C21.0541 8.54369 20.4895 8.50403 19.9618 8.48828C19.0529 8.4593 18.1828 8.44103 17.3515 8.43359C16.4319 8.42241 15.4082 8.35324 14.3856 8.2334C13.4703 8.12003 12.6497 8.01838 12.202 7.80176C11.7544 7.5851 11.0385 7.59225 10.4882 7.43457C10.7973 7.29238 11.3466 7.1929 12.081 7.14746C12.5615 7.13124 12.9627 7.08864 13.2587 7.02246C13.5545 6.95632 13.7388 6.86842 13.7997 6.76367L12.1288 6.32324C10.7945 6.11622 10.0559 6.27638 8.61415 6.19336L10.1005 6.03027C10.13 6.01428 10.1407 5.99524 10.1327 5.97461C9.98845 5.64655 9.75817 5.57658 8.24013 5.39453L7.38857 5.28906L6.03896 5.16309C5.82305 5.09581 5.67323 5.02598 5.60536 4.95996C5.53766 4.89399 5.55402 4.83425 5.65224 4.78711C5.84986 4.70777 5.90998 4.60628 5.82704 4.49219C5.69619 4.41659 5.68566 4.34661 5.79677 4.29492C5.90798 4.24331 6.13402 4.21287 6.43544 4.20898C6.67608 4.20294 6.69413 4.11587 6.82509 4.06641C6.95525 3.99824 7.17828 3.94598 7.47841 3.91309C7.7785 3.88022 8.1488 3.86763 8.56435 3.87598C9.79009 3.8828 10.9422 3.85639 11.9989 3.79883L11.8095 3.77539C12.9108 3.82591 13.9407 3.83251 14.8485 3.79395C15.7583 3.74542 16.9262 3.77668 17.8925 3.74707C18.6787 3.75383 19.2772 3.68637 19.5614 3.55957C19.8366 3.43838 20.8368 3.46707 21.6024 3.49023C22.056 3.50522 22.4945 3.51115 22.913 3.50879C23.4747 3.48136 24.1774 3.5072 24.9032 3.58203C25.1207 3.60499 25.3349 3.617 25.5253 3.61719C27.3705 3.64864 29.2129 3.68573 31.0331 3.70215C31.4532 3.6927 31.9458 3.71443 32.453 3.76465C32.6663 3.78645 32.8738 3.79597 33.0478 3.79102C35.9239 3.74114 39.1696 3.86765 41.9892 3.79883C42.3308 3.78258 42.7091 3.77948 43.1132 3.78906C44.0215 3.82949 44.8108 3.80336 45.3603 3.71484C45.6566 3.66782 46.0364 3.64183 46.4755 3.63867C46.9149 3.63552 47.4044 3.65499 47.912 3.69629C48.7569 3.75099 49.5383 3.75733 50.1728 3.71387C51.4097 3.67372 52.7109 3.6568 54.0653 3.66406C54.48 3.67107 54.8445 3.65611 55.1308 3.61914C55.4172 3.58212 55.6181 3.5246 55.7167 3.45117C55.3841 3.32637 55.0201 3.3113 54.6747 3.32227C53.3362 3.29383 52.0009 3.2595 50.6874 3.24609C49.5117 3.20781 48.3832 3.19589 47.3192 3.21094C46.791 3.22791 46.1315 3.18945 45.4853 3.10352C44.6932 2.99466 43.8766 2.94051 43.2021 2.95215C42.7022 2.95503 42.1746 2.94531 41.6269 2.92383C41.2761 2.8979 40.9162 2.85347 40.5849 2.79492C40.4533 2.76949 40.3096 2.74839 40.164 2.73242C40.0185 2.71648 39.8739 2.70593 39.7392 2.70215C39.6043 2.69837 39.482 2.70091 39.3808 2.70996C39.2796 2.71901 39.2015 2.73455 39.1513 2.75488C38.6439 2.92492 37.5095 2.83816 36.538 2.81934C35.0821 2.53154 33.9982 2.70155 32.6376 2.53906C32.53 2.52829 32.423 2.52237 32.3251 2.52051C32.2273 2.51866 32.1396 2.52098 32.0673 2.52832C29.4339 2.62616 26.3644 2.54531 23.5995 2.5791C23.2947 2.58403 22.9406 2.56617 22.578 2.5293C20.208 2.28519 17.9293 2.21592 16.1874 2.33496C15.9754 2.34568 15.7338 2.34675 15.4745 2.33691C14.2837 2.2399 13.1449 2.20077 12.1532 2.22363C10.5988 2.21624 9.10373 2.22262 7.52431 2.2002C6.43563 2.16829 5.48056 2.20214 4.75478 2.29883C4.7317 2.33777 4.24816 2.29606 3.87782 2.29199C3.66488 2.19398 3.48015 2.10545 3.26063 2.01855C3.06434 1.91103 2.77011 1.80194 2.39833 1.69922C2.02656 1.59651 1.58544 1.50219 1.10536 1.42285C0.284863 1.32119 0.202952 1.17341 0.777235 1.11914C2.25753 0.939603 4.11892 0.866348 6.2245 0.904297C7.98478 0.907331 9.77714 0.914546 11.5624 0.932617C12.6037 0.948121 13.7017 0.982251 14.7147 0.988281C15.0566 1.00153 15.4077 1.02129 15.7645 1.04688C16.2024 1.08398 16.628 1.1042 17.0175 1.10645C18.268 1.07521 19.6635 1.10215 21.1376 1.18652C21.6776 1.20493 22.1961 1.21117 22.6854 1.20508C23.843 1.18217 25.0979 1.19969 26.4169 1.25586C27.2368 1.28754 28.032 1.30341 28.7938 1.30469C29.0628 1.30815 29.2819 1.28165 29.5409 1.30176C31.8219 1.5126 33.4373 1.36035 35.4901 1.44141C36.4879 1.46401 37.4415 1.46388 38.3368 1.44141C40.0841 1.44249 41.8802 1.46569 43.7177 1.51074C46.1476 1.58476 48.3995 1.55928 50.7196 1.58984C51.1776 1.59626 51.6197 1.59552 52.0429 1.58691C54.1019 1.53004 56.3389 1.54234 58.6982 1.62305C59.2337 1.63469 59.7149 1.62032 60.1112 1.58105C60.5076 1.54178 60.8109 1.47816 61.0019 1.39453C61.0827 1.33712 61.0299 1.26191 60.8544 1.18457C60.5634 1.08588 60.2347 0.989595 59.8739 0.896484L46.7411 0.583984C46.1896 0.567659 45.6512 0.558831 45.1298 0.557617C43.5962 0.554895 42.0155 0.530177 40.3954 0.484375C38.7944 0.441347 37.2648 0.449476 35.7138 0.436523C35.2569 0.432184 34.7876 0.421383 34.3085 0.405273C31.0698 0.277771 27.9116 0.199568 24.8563 0.171875C23.571 0.167943 22.1823 0.109786 20.872 0.0908203C19.5617 0.0718551 17.77 0.0650092 16.2157 0.0576172L11.4022 0.0585938C10.4558 0.0548267 9.53429 0.0665665 8.61611 0.0722656C8.54613 0.0467262 8.47862 0.0231816 8.41396 0H124.961C124.96 0.00184874 124.958 0.00301389 124.957 0.00488281C125.16 0.0530731 125.387 0.0974942 125.626 0.135742C126.874 0.286732 128.118 0.34884 129.114 0.310547C130.848 0.244588 132.911 0.309633 134.754 0.287109C135.978 0.278154 137.279 0.302989 138.633 0.361328L138.482 0.342773C138.761 0.329524 139.022 0.289426 139.312 0.313477C139.925 0.358169 140.51 0.377216 141.033 0.369141C141.556 0.36106 142.007 0.326171 142.356 0.266602C142.976 0.190291 143.747 0.155891 144.619 0.165039C145.288 0.156703 145.932 0.138733 146.549 0.111328C146.551 0.107905 146.596 0.0433289 146.88 0.00878906C146.859 0.00546215 146.838 0.00323337 146.816 0H154.378C154.546 0.0334424 154.74 0.0516039 154.984 0.0576172C155.861 0.079881 156.716 0.0900968 157.542 0.0878906C158.153 0.0859451 158.658 0.0344862 159.485 0.125C159.631 0.139754 159.772 0.144655 159.884 0.138672C160.853 0.0582996 162.02 0.040226 163.305 0.0849609C163.97 -0.0655242 165.103 0.0803474 166.151 0.198242C166.428 0.10568 166.07 0.0535006 165.73 0H168.849C168.927 0.00446032 169.006 0.00732383 169.086 0.0136719ZM282.719 9.60938C282.616 9.61426 282.534 9.62628 282.481 9.64355C282.442 9.71029 282.719 9.75681 282.972 9.78809C283.29 9.83018 283.615 9.85658 283.914 9.86523C284.213 9.87388 284.474 9.8641 284.671 9.83691L284.956 9.8125L284.558 9.79883C284.067 9.73208 283.571 9.67085 283.074 9.61523C282.944 9.60661 282.822 9.60449 282.719 9.60938ZM272.069 9.42871C271.696 9.4266 271.357 9.43932 271.064 9.46582C270.748 9.48634 270.976 9.61541 271.404 9.69238C271.586 9.72329 271.781 9.74828 271.972 9.76367C272.163 9.77904 272.345 9.78463 272.505 9.78125C272.665 9.77787 272.798 9.76558 272.893 9.74414C272.987 9.72275 273.042 9.69304 273.052 9.6582L273.059 9.64648C272.995 9.60169 272.86 9.55565 272.679 9.51562C272.497 9.47557 272.28 9.44442 272.069 9.42871ZM270.009 9.53223L269.989 9.56543L270.305 9.60449L270.284 9.52441C270.18 9.52219 270.087 9.52494 270.009 9.53223ZM294.868 9.21289C294.71 9.19334 294.552 9.17395 294.529 9.21289C294.496 9.21892 294.475 9.22765 294.469 9.23828C294.463 9.24882 294.471 9.26072 294.493 9.27344C294.497 9.27389 294.715 9.30085 294.809 9.3125L294.868 9.21289ZM264.156 8.37109C263.983 8.37945 264.1 8.46555 264.071 8.51562C264.052 8.52694 264.052 8.54129 264.071 8.55664C264.091 8.57205 264.13 8.58835 264.184 8.60352C264.237 8.61865 264.303 8.63192 264.375 8.64258C264.447 8.65325 264.522 8.66085 264.593 8.66406C265.037 8.69679 265.457 8.70649 265.814 8.69238C266.172 8.67827 266.456 8.64059 266.641 8.58301L266.653 8.56055C266.244 8.4846 265.792 8.42711 265.351 8.39355C264.909 8.36001 264.495 8.35204 264.156 8.37109ZM65.7509 0.985352C66.6687 1.26622 66.6724 1.261 67.1425 1.3252C69.4112 1.59192 71.6789 1.73515 73.6747 1.73926C74.1179 1.73843 74.4941 1.71124 74.7714 1.66016C74.9137 1.65325 75.0048 1.63174 75.0243 1.59961C75.0435 1.5673 74.9895 1.52721 74.8739 1.48828L74.1445 1.29004C72.8188 1.20437 71.512 1.136 70.2323 1.08594C68.7425 1.02682 67.4223 1.02506 65.8778 1.00098L65.7509 0.985352ZM149.719 0.879883C148.644 0.850787 147.645 0.860226 146.755 0.907227C145.806 0.956636 144.77 0.976467 143.669 0.966797C141.959 0.993833 140.258 1.00461 138.396 1.00098C137.209 1.00321 135.993 0.995904 134.753 0.973633C134.125 0.94498 133.592 0.968208 133.257 1.03906C133.053 1.09725 132.573 1.04969 132.175 1.03613C130.049 0.905648 128.054 0.874527 126.332 0.945312C126.112 0.956852 125.87 0.961263 125.612 0.958008C123.953 0.955576 122.234 0.939628 120.642 0.939453C120.222 0.944959 119.828 0.960862 119.463 0.985352C119.502 1.02529 119.614 1.06782 119.774 1.10547C119.935 1.14315 120.133 1.17292 120.326 1.1875C121.832 1.29915 123.287 1.35749 124.628 1.36133C126.861 1.3471 129.2 1.37919 131.62 1.45703C133.498 1.5355 135.21 1.51946 136.63 1.40918C137.739 1.32689 139.183 1.35819 140.712 1.49707C141.366 1.56341 142.002 1.58918 142.531 1.57227C143.04 1.55009 143.625 1.55625 144.25 1.58887C145.568 1.6509 146.836 1.67887 148.028 1.67383C149.194 1.65099 150.281 1.58925 151.478 1.57031C152.676 1.55138 154.499 1.56145 155.976 1.5293C157.452 1.49714 158.912 1.49312 160.355 1.5166L162.917 1.48145C163.224 1.47769 163.486 1.43823 163.814 1.45508C165.569 1.50845 167.193 1.49362 168.618 1.41113C169.103 1.37747 169.671 1.37104 170.29 1.3916C172.185 1.45257 173.974 1.45544 175.606 1.39941C176.661 1.38817 177.649 1.34985 178.554 1.28613C178.623 1.27138 178.666 1.25146 178.681 1.22754C178.695 1.20354 178.68 1.17631 178.636 1.14746C178.624 1.12925 178.593 1.10946 178.545 1.08984C178.496 1.07025 178.432 1.0506 178.355 1.0332C178.279 1.01578 178.192 1.00129 178.102 0.989258C178.011 0.977233 177.918 0.968299 177.83 0.963867C176.687 0.877615 175.601 0.847382 174.662 0.875977C173.792 0.910175 172.855 0.920591 171.866 0.90625C170.92 0.902477 170.277 1.01384 169.107 0.928711C168.613 0.900699 168.176 0.910145 167.872 0.955078C167.259 1.02955 166.404 1.03373 165.459 0.966797C164.894 0.932935 164.353 0.918461 163.858 0.923828C162.658 0.94832 161.51 0.996596 160.397 1.04395C160.047 1.05488 159.672 1.05678 159.277 1.04883L153.707 0.956055C152.368 0.927613 151.032 0.893287 149.719 0.879883ZM167.852 0.301758C167.478 0.296853 167.176 0.321327 166.992 0.37207C166.809 0.422834 166.754 0.496993 166.839 0.582031C167.218 0.628951 167.724 0.691372 168.008 0.726562C168.992 0.723108 169.833 0.678367 171.06 0.609375C170.549 0.515014 169.995 0.438032 169.439 0.384766C168.884 0.331506 168.341 0.303273 167.852 0.301758ZM138.667 0.430664C138.83 0.457145 139.002 0.478366 139.172 0.493164C139.173 0.49196 139.176 0.487004 139.188 0.46582C139.113 0.439123 139.01 0.414185 138.893 0.393555L138.702 0.369141C138.693 0.383794 138.671 0.424356 138.667 0.430664Z" fill="#DF6951"/>
</svg>
